<mxfile host="app.diagrams.net" modified="2022-04-06T04:19:52.915Z" agent="5.0 (Windows NT 10.0; Win64; x64) AppleWebKit/537.36 (KHTML, like Gecko) Chrome/100.0.4896.60 Safari/537.36 Edg/100.0.1185.29" etag="HOFXDzQBePPilpkd-Sjs" version="17.4.0" type="github">
  <diagram id="bBk7iMYu7njzbH4V4JJ3" name="第 1 页">
    <mxGraphModel dx="990" dy="539" grid="1" gridSize="10" guides="1" tooltips="1" connect="1" arrows="1" fold="1" page="1" pageScale="1" pageWidth="827" pageHeight="1169" math="0" shadow="0">
      <root>
        <mxCell id="0" />
        <mxCell id="1" parent="0" />
        <mxCell id="eqO_8LCK6mziu18vZqm7-1" value="" style="verticalLabelPosition=bottom;verticalAlign=top;html=1;shape=mxgraph.basic.rect;fillColor2=none;strokeWidth=1;size=20;indent=5;" parent="1" vertex="1">
          <mxGeometry x="180" y="80" width="380" height="330" as="geometry" />
        </mxCell>
        <mxCell id="eqO_8LCK6mziu18vZqm7-2" value="" style="verticalLabelPosition=bottom;verticalAlign=top;html=1;shape=mxgraph.basic.rect;fillColor2=none;strokeWidth=1;size=20;indent=5;" parent="1" vertex="1">
          <mxGeometry x="180" y="80" width="380" height="100" as="geometry" />
        </mxCell>
        <mxCell id="eqO_8LCK6mziu18vZqm7-3" value="" style="verticalLabelPosition=bottom;verticalAlign=top;html=1;shape=mxgraph.basic.rect;fillColor2=none;strokeWidth=1;size=20;indent=5;" parent="1" vertex="1">
          <mxGeometry x="180" y="180" width="200" height="230" as="geometry" />
        </mxCell>
        <mxCell id="eqO_8LCK6mziu18vZqm7-4" value="" style="verticalLabelPosition=bottom;verticalAlign=top;html=1;shape=mxgraph.basic.rect;fillColor2=none;strokeWidth=1;size=20;indent=5;" parent="1" vertex="1">
          <mxGeometry x="440" y="250" width="120" height="160" as="geometry" />
        </mxCell>
        <mxCell id="eqO_8LCK6mziu18vZqm7-5" value="" style="verticalLabelPosition=bottom;verticalAlign=top;html=1;shape=mxgraph.basic.orthogonal_triangle" parent="1" vertex="1">
          <mxGeometry x="180" y="80" width="90" height="100" as="geometry" />
        </mxCell>
        <mxCell id="eqO_8LCK6mziu18vZqm7-6" value="" style="verticalLabelPosition=bottom;verticalAlign=top;html=1;shape=mxgraph.basic.orthogonal_triangle;direction=north;" parent="1" vertex="1">
          <mxGeometry x="470" y="80" width="90" height="100" as="geometry" />
        </mxCell>
        <mxCell id="eqO_8LCK6mziu18vZqm7-7" value="q" style="text;html=1;resizable=0;autosize=1;align=center;verticalAlign=middle;points=[];fillColor=none;strokeColor=none;rounded=0;" parent="1" vertex="1">
          <mxGeometry x="424" y="220" width="20" height="20" as="geometry" />
        </mxCell>
        <mxCell id="eqO_8LCK6mziu18vZqm7-8" value="f" style="text;html=1;resizable=0;autosize=1;align=center;verticalAlign=middle;points=[];fillColor=none;strokeColor=none;rounded=0;" parent="1" vertex="1">
          <mxGeometry x="500" y="310" width="20" height="20" as="geometry" />
        </mxCell>
        <mxCell id="eqO_8LCK6mziu18vZqm7-9" value="P" style="text;html=1;resizable=0;autosize=1;align=center;verticalAlign=middle;points=[];fillColor=none;strokeColor=none;rounded=0;" parent="1" vertex="1">
          <mxGeometry x="360" y="110" width="20" height="20" as="geometry" />
        </mxCell>
        <mxCell id="eqO_8LCK6mziu18vZqm7-10" value="F" style="text;html=1;resizable=0;autosize=1;align=center;verticalAlign=middle;points=[];fillColor=none;strokeColor=none;rounded=0;" parent="1" vertex="1">
          <mxGeometry x="200" y="150" width="20" height="20" as="geometry" />
        </mxCell>
        <mxCell id="eqO_8LCK6mziu18vZqm7-11" value="T" style="text;html=1;resizable=0;autosize=1;align=center;verticalAlign=middle;points=[];fillColor=none;strokeColor=none;rounded=0;" parent="1" vertex="1">
          <mxGeometry x="530" y="150" width="20" height="20" as="geometry" />
        </mxCell>
        <mxCell id="eqO_8LCK6mziu18vZqm7-12" value="g" style="text;html=1;resizable=0;autosize=1;align=center;verticalAlign=middle;points=[];fillColor=none;strokeColor=none;rounded=0;" parent="1" vertex="1">
          <mxGeometry x="270" y="220" width="20" height="20" as="geometry" />
        </mxCell>
        <mxCell id="eqO_8LCK6mziu18vZqm7-13" value="" style="verticalLabelPosition=bottom;verticalAlign=top;html=1;shape=mxgraph.basic.rect;fillColor2=none;strokeWidth=1;size=20;indent=5;" parent="1" vertex="1">
          <mxGeometry x="180" y="290" width="200" height="120" as="geometry" />
        </mxCell>
        <mxCell id="eqO_8LCK6mziu18vZqm7-14" value="n" style="text;html=1;resizable=0;autosize=1;align=center;verticalAlign=middle;points=[];fillColor=none;strokeColor=none;rounded=0;" parent="1" vertex="1">
          <mxGeometry x="270" y="340" width="20" height="20" as="geometry" />
        </mxCell>
      </root>
    </mxGraphModel>
  </diagram>
</mxfile>
